<?xml version="1.0" standalone="no"?>
<!DOCTYPE svg PUBLIC "-//W3C//DTD SVG 20010904//EN"
 "http://www.w3.org/TR/2001/REC-SVG-20010904/DTD/svg10.dtd">
<svg version="1.0" xmlns="http://www.w3.org/2000/svg"
 width="128.000000pt" height="128.000000pt" viewBox="0 0 128.000000 128.000000"
 preserveAspectRatio="xMidYMid meet">

<g transform="translate(0.000000,128.000000) scale(0.100000,-0.100000)"
fill="#000000" stroke="none">
<path d="M793 1245 c-27 -27 -39 -33 -48 -25 -21 17 -90 14 -123 -6 -44 -25
-58 -61 -54 -133 1 -14 31 -53 79 -102 l77 -80 -169 -169 -170 -170 -76 76
c-65 65 -82 76 -119 81 -97 13 -169 -83 -129 -171 11 -22 8 -28 -18 -50 -56
-47 -50 -102 19 -173 l41 -42 -36 -41 c-54 -59 -51 -88 17 -156 68 -68 97 -71
156 -17 l41 36 42 -41 c71 -69 126 -75 173 -19 22 26 28 29 50 18 88 -40 184
32 171 129 -5 37 -16 54 -81 119 l-76 76 170 170 169 169 80 -77 c49 -48 88
-78 102 -79 72 -4 108 10 133 54 20 33 23 102 6 123 -8 9 -2 21 25 48 52 52
49 93 -10 156 -25 26 -45 52 -45 57 0 4 14 23 32 41 52 54 36 116 -48 180 -48
36 -86 34 -127 -5 -18 -18 -37 -32 -41 -32 -5 0 -31 20 -57 45 -63 59 -104 62
-156 10z m265 -188 c139 -139 173 -179 170 -197 -4 -29 -28 -45 -59 -37 -13 3
-97 80 -186 170 -165 166 -183 193 -151 225 29 29 55 10 226 -161z m142 44
c-4 -9 -19 -26 -32 -38 l-24 -23 -53 54 -52 53 37 32 37 33 48 -48 c36 -35 46
-51 39 -63z m-248 -149 c212 -212 228 -230 228 -263 0 -56 -45 -86 -96 -64
-40 18 -464 446 -465 471 -4 56 20 84 70 84 33 0 51 -16 263 -228z m-137 -142
l50 -50 -170 -170 -170 -170 -52 52 -53 53 167 167 c92 93 170 168 173 168 3
0 28 -23 55 -50z m-378 -373 c253 -253 259 -262 208 -312 -50 -51 -59 -45
-312 208 -253 253 -259 262 -208 312 50 51 59 45 312 -208z m-145 -134 c93
-93 171 -178 175 -191 7 -29 -13 -52 -46 -52 -20 0 -62 36 -193 167 -171 171
-189 198 -156 231 28 28 55 9 220 -155z m-97 -113 l49 -50 -29 -30 c-16 -16
-33 -30 -39 -30 -13 0 -96 81 -96 94 0 11 50 66 60 66 3 0 28 -22 55 -50z"/>
<path d="M704 1085 c-7 -18 3 -35 21 -35 15 0 28 27 19 41 -8 14 -34 11 -40
-6z"/>
<path d="M773 1014 c-4 -11 37 -59 143 -165 82 -82 155 -149 162 -149 7 0 15
7 19 16 4 11 -37 59 -143 165 -82 82 -155 149 -162 149 -7 0 -15 -7 -19 -16z"/>
<path d="M191 576 c-16 -19 -6 -36 20 -36 15 0 20 6 17 22 -4 27 -21 33 -37
14z"/>
<path d="M260 505 c-11 -13 10 -39 143 -173 149 -150 157 -156 174 -139 17 16
10 24 -137 172 -85 85 -158 155 -161 155 -4 0 -12 -7 -19 -15z"/>
</g>
</svg>
